# Made in Blockbench 4.6.4
mtllib pestle.mtl

o cube
v -0.187499999999998 0.4768584753741141 -0.1503528997521365
v -0.18749999999999817 0.4392702504360799 -0.2695675185956649
v -0.06249999999999806 0.47685847537411363 -0.15035289975213656
v -0.062499999999998224 0.4392702504360795 -0.2695675185956649
v -0.1875000000000001 -0.03758822493803338 -0.11921461884352835
v -0.18749999999999994 7.771561172376096e-16 0
v -0.06250000000000017 -0.037588224938033876 -0.11921461884352835
v -0.0625 2.220446049250313e-16 0
vt 0 1
vt 0.5 1
vt 0.5 0.875
vt 0 0.875
vt 0 0.5
vt 0.125 0.5
vt 0.125 0.375
vt 0 0.375
vt 0 0.875
vt 0.5 0.875
vt 0.5 0.75
vt 0 0.75
vt 0.5 1
vt 0.625 1
vt 0.625 0.875
vt 0.5 0.875
vt 0.5 0.625
vt 0 0.625
vt 0 0.75
vt 0.5 0.75
vt 0.5 0.625
vt 0 0.625
vt 0 0.5
vt 0.5 0.5
vn -1.3411307100870504e-15 -0.30070579950427323 -0.9537169507482268
vn 3.884317465250323e-15 0.9537169507482269 -0.3007057995042731
vn 1.3411307100870504e-15 0.30070579950427323 0.9537169507482268
vn -3.884317465250323e-15 -0.9537169507482269 0.3007057995042731
vn -1 4.0982091520772776e-15 7.565850042491385e-17
vn 1 -4.0982091520772776e-15 -7.565850042491385e-17
usemtl m_74d7e29b-296c-848e-2dd5-aea9a91dc8cd
f 7/3/1 5/2/1 2/1/1
f 4/4/1 7/3/1 2/1/1
f 4/7/2 2/6/2 1/5/2
f 3/8/2 4/7/2 1/5/2
f 3/11/3 1/10/3 6/9/3
f 8/12/3 3/11/3 6/9/3
f 8/15/4 6/14/4 5/13/4
f 7/16/4 8/15/4 5/13/4
f 1/19/5 2/18/5 5/17/5
f 6/20/5 1/19/5 5/17/5
f 4/23/6 3/22/6 8/21/6
f 7/24/6 4/23/6 8/21/6