# Made in Blockbench 4.9.4
mtllib mill_blades.mtl

o cube
v 0.05714603003589325 0.08412945175267827 0.059374999999999956
v 0.05714603003589325 0.08412945175267827 -0.021874999999999978
v 1.6008960300358934 0.08412945175267794 0.059374999999999956
v 1.6008960300358934 0.08412945175267794 -0.021874999999999978
v 0.05714603003589325 -0.08462054824732174 -0.021874999999999978
v 0.05714603003589325 -0.08462054824732174 0.059374999999999956
v 1.6008960300358934 -0.08462054824732207 -0.021874999999999978
v 1.6008960300358934 -0.08462054824732207 0.059374999999999956
vt 0.125 1
vt 0.15625 1
vt 0.15625 0.6875
vt 0.125 0.6875
vt 0.40625 0.875
vt 0.421875 0.875
vt 0.421875 0.5625
vt 0.40625 0.5625
vt 0.15625 1
vt 0.1875 1
vt 0.1875 0.6875
vt 0.15625 0.6875
vt 0.421875 0.875
vt 0.4375 0.875
vt 0.4375 0.5625
vt 0.421875 0.5625
vt 0.484375 0.671875
vt 0.453125 0.671875
vt 0.453125 0.6875
vt 0.484375 0.6875
vt 0.484375 0.671875
vt 0.453125 0.671875
vt 0.453125 0.65625
vt 0.484375 0.65625
vn 0 0 -1
vn 2.220446049250313e-16 1 0
vn 0 0 1
vn -2.220446049250313e-16 -1 0
vn -1 2.220446049250313e-16 0
vn 1 -2.220446049250313e-16 0
usemtl m_6242bb61-159a-fd18-54e9-a949c45b76b2
f 7/3/1 5/2/1 2/1/1
f 4/4/1 7/3/1 2/1/1
f 4/7/2 2/6/2 1/5/2
f 3/8/2 4/7/2 1/5/2
f 3/11/3 1/10/3 6/9/3
f 8/12/3 3/11/3 6/9/3
f 8/15/4 6/14/4 5/13/4
f 7/16/4 8/15/4 5/13/4
f 1/19/5 2/18/5 5/17/5
f 6/20/5 1/19/5 5/17/5
f 4/23/6 3/22/6 8/21/6
f 7/24/6 4/23/6 8/21/6
o cube
v -0.06785396996410675 -0.04087054824732167 0.059374999999999956
v -0.06785396996410675 -0.04087054824732167 -0.021874999999999978
v 0.1008960300358932 -0.040870548247321725 0.059374999999999956
v 0.1008960300358932 -0.040870548247321725 -0.021874999999999978
v -0.06785396996410709 -1.584620548247322 -0.021874999999999978
v -0.06785396996410709 -1.584620548247322 0.059374999999999956
v 0.10089603003589287 -1.584620548247322 -0.021874999999999978
v 0.10089603003589287 -1.584620548247322 0.059374999999999956
vt 0.1875 0.9375
vt 0.5 0.9375
vt 0.5 0.90625
vt 0.1875 0.90625
vt 0.453125 0.625
vt 0.46875 0.625
vt 0.46875 0.59375
vt 0.453125 0.59375
vt 0.1875 0.90625
vt 0.5 0.90625
vt 0.5 0.875
vt 0.1875 0.875
vt 0.453125 0.59375
vt 0.46875 0.59375
vt 0.46875 0.5625
vt 0.453125 0.5625
vt 0.75 0.828125
vt 0.4375 0.828125
vt 0.4375 0.84375
vt 0.75 0.84375
vt 0.75 0.828125
vt 0.4375 0.828125
vt 0.4375 0.8125
vt 0.75 0.8125
vn 0 0 -1
vn 2.220446049250313e-16 1 0
vn 0 0 1
vn -2.220446049250313e-16 -1 0
vn -1 2.220446049250313e-16 0
vn 1 -2.220446049250313e-16 0
usemtl m_6242bb61-159a-fd18-54e9-a949c45b76b2
f 15/27/7 13/26/7 10/25/7
f 12/28/7 15/27/7 10/25/7
f 12/31/8 10/30/8 9/29/8
f 11/32/8 12/31/8 9/29/8
f 11/35/9 9/34/9 14/33/9
f 16/36/9 11/35/9 14/33/9
f 16/39/10 14/38/10 13/37/10
f 15/40/10 16/39/10 13/37/10
f 9/43/11 10/42/11 13/41/11
f 14/44/11 9/43/11 13/41/11
f 12/47/12 11/46/12 16/45/12
f 15/48/12 12/47/12 16/45/12
o cube
v -0.06785396996410642 1.5841294517526783 0.059374999999999956
v -0.06785396996410642 1.5841294517526783 -0.021874999999999978
v 0.10089603003589365 1.5841294517526783 0.059374999999999956
v 0.10089603003589365 1.5841294517526783 -0.021874999999999978
v -0.06785396996410675 0.04037945175267832 -0.021874999999999978
v -0.06785396996410675 0.04037945175267832 0.059374999999999956
v 0.10089603003589331 0.04037945175267832 -0.021874999999999978
v 0.10089603003589331 0.04037945175267832 0.059374999999999956
vt 0.1875 1
vt 0.5 1
vt 0.5 0.96875
vt 0.1875 0.96875
vt 0.234375 0.5625
vt 0.25 0.5625
vt 0.25 0.53125
vt 0.234375 0.53125
vt 0.1875 0.96875
vt 0.5 0.96875
vt 0.5 0.9375
vt 0.1875 0.9375
vt 0.453125 0.65625
vt 0.46875 0.65625
vt 0.46875 0.625
vt 0.453125 0.625
vt 0.75 0.859375
vt 0.4375 0.859375
vt 0.4375 0.875
vt 0.75 0.875
vt 0.75 0.859375
vt 0.4375 0.859375
vt 0.4375 0.84375
vt 0.75 0.84375
vn 0 0 -1
vn 2.220446049250313e-16 1 0
vn 0 0 1
vn -2.220446049250313e-16 -1 0
vn -1 2.220446049250313e-16 0
vn 1 -2.220446049250313e-16 0
usemtl m_6242bb61-159a-fd18-54e9-a949c45b76b2
f 23/51/13 21/50/13 18/49/13
f 20/52/13 23/51/13 18/49/13
f 20/55/14 18/54/14 17/53/14
f 19/56/14 20/55/14 17/53/14
f 19/59/15 17/58/15 22/57/15
f 24/60/15 19/59/15 22/57/15
f 24/63/16 22/62/16 21/61/16
f 23/64/16 24/63/16 21/61/16
f 17/67/17 18/66/17 21/65/17
f 22/68/17 17/67/17 21/65/17
f 20/71/18 19/70/18 24/69/18
f 23/72/18 20/71/18 24/69/18
o cube
v -1.5678539699641065 0.08412945175267861 0.059374999999999956
v -1.5678539699641065 0.08412945175267861 -0.021874999999999978
v -0.024103969964106686 0.08412945175267827 0.059374999999999956
v -0.024103969964106686 0.08412945175267827 -0.021874999999999978
v -1.5678539699641065 -0.0846205482473214 -0.021874999999999978
v -1.5678539699641065 -0.0846205482473214 0.059374999999999956
v -0.024103969964106742 -0.08462054824732174 -0.021874999999999978
v -0.024103969964106742 -0.08462054824732174 0.059374999999999956
vt 0.1875 0.875
vt 0.21875 0.875
vt 0.21875 0.5625
vt 0.1875 0.5625
vt 0.1875 0.5625
vt 0.203125 0.5625
vt 0.203125 0.25
vt 0.1875 0.25
vt 0.21875 0.875
vt 0.25 0.875
vt 0.25 0.5625
vt 0.21875 0.5625
vt 0.4375 0.8125
vt 0.453125 0.8125
vt 0.453125 0.5
vt 0.4375 0.5
vt 0.484375 0.546875
vt 0.453125 0.546875
vt 0.453125 0.5625
vt 0.484375 0.5625
vt 0.484375 0.546875
vt 0.453125 0.546875
vt 0.453125 0.53125
vt 0.484375 0.53125
vn 0 0 -1
vn 2.220446049250313e-16 1 0
vn 0 0 1
vn -2.220446049250313e-16 -1 0
vn -1 2.220446049250313e-16 0
vn 1 -2.220446049250313e-16 0
usemtl m_6242bb61-159a-fd18-54e9-a949c45b76b2
f 31/75/19 29/74/19 26/73/19
f 28/76/19 31/75/19 26/73/19
f 28/79/20 26/78/20 25/77/20
f 27/80/20 28/79/20 25/77/20
f 27/83/21 25/82/21 30/81/21
f 32/84/21 27/83/21 30/81/21
f 32/87/22 30/86/22 29/85/22
f 31/88/22 32/87/22 29/85/22
f 25/91/23 26/90/23 29/89/23
f 30/92/23 25/91/23 29/89/23
f 28/95/24 27/94/24 32/93/24
f 31/96/24 28/95/24 32/93/24
o cube
v -0.06785396996410675 0.08412945175267827 0.490625
v -0.06785396996410675 0.08412945175267827 -0.05312499999999998
v 0.10089603003589331 0.08412945175267827 0.490625
v 0.10089603003589331 0.08412945175267827 -0.05312499999999998
v -0.06785396996410675 -0.08462054824732174 -0.05312499999999998
v -0.06785396996410675 -0.08462054824732174 0.490625
v 0.1008960300358932 -0.08462054824732174 -0.05312499999999998
v 0.1008960300358932 -0.08462054824732174 0.490625
vt 0.453125 0.75
vt 0.484375 0.75
vt 0.484375 0.71875
vt 0.453125 0.71875
vt 0.453125 0.8125
vt 0.578125 0.8125
vt 0.578125 0.78125
vt 0.453125 0.78125
vt 0.453125 0.71875
vt 0.484375 0.71875
vt 0.484375 0.6875
vt 0.453125 0.6875
vt 0.453125 0.78125
vt 0.578125 0.78125
vt 0.578125 0.75
vt 0.453125 0.75
vt 0.234375 0.4375
vt 0.203125 0.4375
vt 0.203125 0.5625
vt 0.234375 0.5625
vt 0.4375 0.5625
vt 0.40625 0.5625
vt 0.40625 0.4375
vt 0.4375 0.4375
vn 0 0 -1
vn 2.220446049250313e-16 1 0
vn 0 0 1
vn -2.220446049250313e-16 -1 0
vn -1 2.220446049250313e-16 0
vn 1 -2.220446049250313e-16 0
usemtl m_6242bb61-159a-fd18-54e9-a949c45b76b2
f 39/99/25 37/98/25 34/97/25
f 36/100/25 39/99/25 34/97/25
f 36/103/26 34/102/26 33/101/26
f 35/104/26 36/103/26 33/101/26
f 35/107/27 33/106/27 38/105/27
f 40/108/27 35/107/27 38/105/27
f 40/111/28 38/110/28 37/109/28
f 39/112/28 40/111/28 37/109/28
f 33/115/29 34/114/29 37/113/29
f 38/116/29 33/115/29 37/113/29
f 36/119/30 35/118/30 40/117/30
f 39/120/30 36/119/30 40/117/30
o cube
v -0.6163755697596728 0.07427871146674825 0.043749999999999956
v -0.6163755697596728 0.07427871146674825 -0.006249999999999978
v 0.11282829833895403 -0.654925156631879 0.043749999999999956
v 0.11282829833895403 -0.654925156631879 -0.006249999999999978
v -0.7356998390849028 -0.04504555785848163 -0.006249999999999978
v -0.7356998390849028 -0.04504555785848163 0.043749999999999956
v -0.006495970986275856 -0.7742494259571089 -0.006249999999999978
v -0.006495970986275856 -0.7742494259571089 0.043749999999999956
vt 0.15625 0.6875
vt 0.1875 0.6875
vt 0.1875 0.421875
vt 0.15625 0.421875
vt 0 1
vt 0 1
vt 0 0.734375
vt 0 0.734375
vt 0.34375 0.875
vt 0.375 0.875
vt 0.375 0.609375
vt 0.34375 0.609375
vt 0 1
vt 0 1
vt 0 0.734375
vt 0 0.734375
vt 0.03125 1
vt 0 1
vt 0 1
vt 0.03125 1
vt 0.03125 1
vt 0 1
vt 0 1
vt 0.03125 1
vn 0 0 -1
vn 0.7071067811865477 0.7071067811865474 0
vn 0 0 1
vn -0.7071067811865477 -0.7071067811865474 0
vn -0.7071067811865474 0.7071067811865477 0
vn 0.7071067811865474 -0.7071067811865477 0
usemtl m_6242bb61-159a-fd18-54e9-a949c45b76b2
f 47/123/31 45/122/31 42/121/31
f 44/124/31 47/123/31 42/121/31
f 44/127/32 42/126/32 41/125/32
f 43/128/32 44/127/32 41/125/32
f 43/131/33 41/130/33 46/129/33
f 48/132/33 43/131/33 46/129/33
f 48/135/34 46/134/34 45/133/34
f 47/136/34 48/135/34 45/133/34
f 41/139/35 42/138/35 45/137/35
f 46/140/35 41/139/35 45/137/35
f 44/143/36 43/142/36 48/141/36
f 47/144/36 44/143/36 48/141/36
o cube
v -0.0816260664873465 -0.654925156631879 0.043749999999999956
v -0.0816260664873465 -0.654925156631879 -0.006249999999999978
v 0.6122224625519532 0.03892337240742083 0.043749999999999956
v 0.6122224625519532 0.03892337240742083 -0.006249999999999978
v 0.03769820283788328 -0.7742494259571087 -0.006249999999999978
v 0.03769820283788328 -0.7742494259571087 0.043749999999999956
v 0.7315467318771831 -0.08040089691780894 -0.006249999999999978
v 0.7315467318771831 -0.08040089691780894 0.043749999999999956
vt 0.375 0.875
vt 0.40625 0.875
vt 0.40625 0.640625
vt 0.375 0.640625
vt 0 1
vt 0 1
vt 0 0.765625
vt 0 0.765625
vt 0.375 0.640625
vt 0.40625 0.640625
vt 0.40625 0.40625
vt 0.375 0.40625
vt 0 1
vt 0 1
vt 0 0.765625
vt 0 0.765625
vt 0.03125 1
vt 0 1
vt 0 1
vt 0.03125 1
vt 0.03125 1
vt 0 1
vt 0 1
vt 0.03125 1
vn 0 0 -1
vn -0.7071067811865475 0.7071067811865476 0
vn 0 0 1
vn 0.7071067811865475 -0.7071067811865476 0
vn -0.7071067811865476 -0.7071067811865475 0
vn 0.7071067811865476 0.7071067811865475 0
usemtl m_6242bb61-159a-fd18-54e9-a949c45b76b2
f 55/147/37 53/146/37 50/145/37
f 52/148/37 55/147/37 50/145/37
f 52/151/38 50/150/38 49/149/38
f 51/152/38 52/151/38 49/149/38
f 51/155/39 49/154/39 54/153/39
f 56/156/39 51/155/39 54/153/39
f 56/159/40 54/158/40 53/157/40
f 55/160/40 56/159/40 53/157/40
f 49/163/41 50/162/41 53/161/41
f 54/164/41 49/163/41 53/161/41
f 52/167/42 51/166/42 56/165/42
f 55/168/42 52/167/42 56/165/42
o cube
v 0.03769820283788383 0.7737583294624655 0.043749999999999956
v 0.03769820283788383 0.7737583294624655 -0.006249999999999978
v 0.81109624476067 0.00036028753967898286 0.043749999999999956
v 0.81109624476067 0.00036028753967898286 -0.006249999999999978
v -0.08162606648734616 0.6544340601372356 -0.006249999999999978
v -0.08162606648734616 0.6544340601372356 0.043749999999999956
v 0.6917719754354401 -0.11896398178555101 -0.006249999999999978
v 0.6917719754354401 -0.11896398178555101 0.043749999999999956
vt 0.125 0.6875
vt 0.15625 0.6875
vt 0.15625 0.421875
vt 0.125 0.421875
vt 0 1
vt 0 1
vt 0 0.734375
vt 0 0.734375
vt 0.3125 0.875
vt 0.34375 0.875
vt 0.34375 0.609375
vt 0.3125 0.609375
vt 0 1
vt 0 1
vt 0 0.734375
vt 0 0.734375
vt 0.03125 1
vt 0 1
vt 0 1
vt 0.03125 1
vt 0.03125 1
vt 0 1
vt 0 1
vt 0.03125 1
vn 0 0 -1
vn 0.7071067811865477 0.7071067811865474 0
vn 0 0 1
vn -0.7071067811865477 -0.7071067811865474 0
vn -0.7071067811865474 0.7071067811865477 0
vn 0.7071067811865474 -0.7071067811865477 0
usemtl m_6242bb61-159a-fd18-54e9-a949c45b76b2
f 63/171/43 61/170/43 58/169/43
f 60/172/43 63/171/43 58/169/43
f 60/175/44 58/174/44 57/173/44
f 59/176/44 60/175/44 57/173/44
f 59/179/45 57/178/45 62/177/45
f 64/180/45 59/179/45 62/177/45
f 64/183/46 62/182/46 61/181/46
f 63/184/46 64/183/46 61/181/46
f 57/187/47 58/186/47 61/185/47
f 62/188/47 57/187/47 61/185/47
f 60/191/48 59/190/48 64/189/48
f 63/192/48 60/191/48 64/189/48
o cube
v -0.7445386738497345 0.03571562659900662 0.043749999999999956
v -0.7445386738497345 0.03571562659900662 -0.006249999999999978
v -0.05069014481043477 0.7295641556383063 0.043749999999999956
v -0.05069014481043477 0.7295641556383063 -0.006249999999999978
v -0.6252144045245046 -0.08360864272622326 -0.006249999999999978
v -0.6252144045245046 -0.08360864272622326 0.043749999999999956
v 0.06863412451479511 0.6102398863130762 -0.006249999999999978
v 0.06863412451479511 0.6102398863130762 0.043749999999999956
vt 0.3125 0.609375
vt 0.34375 0.609375
vt 0.34375 0.390625
vt 0.3125 0.390625
vt 0 1
vt 0 1
vt 0 0.78125
vt 0 0.78125
vt 0.34375 0.609375
vt 0.375 0.609375
vt 0.375 0.390625
vt 0.34375 0.390625
vt 0 1
vt 0 1
vt 0 0.78125
vt 0 0.78125
vt 0.03125 1
vt 0 1
vt 0 1
vt 0.03125 1
vt 0.03125 1
vt 0 1
vt 0 1
vt 0.03125 1
vn 0 0 -1
vn -0.7071067811865475 0.7071067811865476 0
vn 0 0 1
vn 0.7071067811865475 -0.7071067811865476 0
vn -0.7071067811865476 -0.7071067811865475 0
vn 0.7071067811865476 0.7071067811865475 0
usemtl m_6242bb61-159a-fd18-54e9-a949c45b76b2
f 71/195/49 69/194/49 66/193/49
f 68/196/49 71/195/49 66/193/49
f 68/199/50 66/198/50 65/197/50
f 67/200/50 68/199/50 65/197/50
f 67/203/51 65/202/51 70/201/51
f 72/204/51 67/203/51 70/201/51
f 72/207/52 70/206/52 69/205/52
f 71/208/52 72/207/52 69/205/52
f 65/211/53 66/210/53 69/209/53
f 70/212/53 65/211/53 69/209/53
f 68/215/54 67/214/54 72/213/54
f 71/216/54 68/215/54 72/213/54
o cube
v -0.89037944746946 0.9947291985832618 0.05312499999999998
v -0.89037944746946 0.9947291985832618 -0.009375000000000022
v 0.9967117748221384 -0.8923620237083374 0.05312499999999998
v 0.9967117748221384 -0.8923620237083374 -0.009375000000000022
v -1.0097037167946898 0.8754049292580321 -0.009375000000000022
v -1.0097037167946898 0.8754049292580321 0.05312499999999998
v 0.8773875054969085 -1.0116862930335673 -0.009375000000000022
v 0.8773875054969085 -1.0116862930335673 0.05312499999999998
vt 0.0625 1
vt 0.09375 1
vt 0.09375 0.4375
vt 0.0625 0.4375
vt 0.28125 0.875
vt 0.296875 0.875
vt 0.296875 0.3125
vt 0.28125 0.3125
vt 0.09375 1
vt 0.125 1
vt 0.125 0.4375
vt 0.09375 0.4375
vt 0.296875 0.875
vt 0.3125 0.875
vt 0.3125 0.3125
vt 0.296875 0.3125
vt 0.5 0.609375
vt 0.46875 0.609375
vt 0.46875 0.625
vt 0.5 0.625
vt 0.5 0.609375
vt 0.46875 0.609375
vt 0.46875 0.59375
vt 0.5 0.59375
vn 0 0 -1
vn 0.7071067811865477 0.7071067811865474 0
vn 0 0 1
vn -0.7071067811865477 -0.7071067811865474 0
vn -0.7071067811865474 0.7071067811865477 0
vn 0.7071067811865474 -0.7071067811865477 0
usemtl m_6242bb61-159a-fd18-54e9-a949c45b76b2
f 79/219/55 77/218/55 74/217/55
f 76/220/55 79/219/55 74/217/55
f 76/223/56 74/222/56 73/221/56
f 75/224/56 76/223/56 73/221/56
f 75/227/57 73/226/57 78/225/57
f 80/228/57 75/227/57 78/225/57
f 80/231/58 78/230/58 77/229/58
f 79/232/58 80/231/58 77/229/58
f 73/235/59 74/234/59 77/233/59
f 78/236/59 73/235/59 77/233/59
f 76/239/60 75/238/60 80/237/60
f 79/240/60 76/239/60 80/237/60
o cube
v -0.9213153691463716 -0.8481678498841776 0.05312499999999998
v -0.9213153691463716 -0.8481678498841776 -0.009375000000000022
v 0.9657758531452272 1.038923372407421 0.05312499999999998
v 0.9657758531452272 1.038923372407421 -0.009375000000000022
v -0.8019910998211418 -0.9674921192094075 -0.009375000000000022
v -0.8019910998211418 -0.9674921192094075 0.05312499999999998
v 1.085100122470457 0.9195991030821911 -0.009375000000000022
v 1.085100122470457 0.9195991030821911 0.05312499999999998
vt 0 1
vt 0.03125 1
vt 0.03125 0.4375
vt 0 0.4375
vt 0.25 0.875
vt 0.265625 0.875
vt 0.265625 0.3125
vt 0.25 0.3125
vt 0.03125 1
vt 0.0625 1
vt 0.0625 0.4375
vt 0.03125 0.4375
vt 0.265625 0.875
vt 0.28125 0.875
vt 0.28125 0.3125
vt 0.265625 0.3125
vt 0.5 0.640625
vt 0.46875 0.640625
vt 0.46875 0.65625
vt 0.5 0.65625
vt 0.5 0.640625
vt 0.46875 0.640625
vt 0.46875 0.625
vt 0.5 0.625
vn 0 0 -1
vn -0.7071067811865475 0.7071067811865476 0
vn 0 0 1
vn 0.7071067811865475 -0.7071067811865476 0
vn -0.7071067811865476 -0.7071067811865475 0
vn 0.7071067811865476 0.7071067811865475 0
usemtl m_6242bb61-159a-fd18-54e9-a949c45b76b2
f 87/243/61 85/242/61 82/241/61
f 84/244/61 87/243/61 82/241/61
f 84/247/62 82/246/62 81/245/62
f 83/248/62 84/247/62 81/245/62
f 83/251/63 81/250/63 86/249/63
f 88/252/63 83/251/63 86/249/63
f 88/255/64 86/254/64 85/253/64
f 87/256/64 88/255/64 85/253/64
f 81/259/65 82/258/65 85/257/65
f 86/260/65 81/259/65 85/257/65
f 84/263/66 83/262/66 88/261/66
f 87/264/66 84/263/66 88/261/66